<?xml version="1.0" encoding="UTF-8" standalone="no"?>
<!DOCTYPE svg PUBLIC "-//W3C//DTD SVG 1.1//EN"
 "http://www.w3.org/Graphics/SVG/1.1/DTD/svg11.dtd">
<!-- Generated by graphviz version 10.0.1 (20240210.2158)
 -->
<!-- Pages: 1 -->
<svg width="457pt" height="188pt"
 viewBox="0.00 0.00 456.71 188.00" xmlns="http://www.w3.org/2000/svg" xmlns:xlink="http://www.w3.org/1999/xlink">
<g id="graph0" class="graph" transform="scale(1 1) rotate(0) translate(4 184)">
<polygon fill="white" stroke="none" points="-4,4 -4,-184 452.71,-184 452.71,4 -4,4"/>
<!-- Jonathan -->
<g id="node1" class="node">
<title>Jonathan</title>
<g id="a_node1"><a xlink:title="Lorem ipsum">
<polygon fill="none" stroke="black" points="224.48,-180 159.73,-180 159.73,-144 224.48,-144 224.48,-180"/>
<text text-anchor="middle" x="192.11" y="-156.57" font-family="Times New Roman,serif" font-size="14.00">Jonathan</text>
</a>
</g>
</g>
<!-- Sara -->
<g id="node2" class="node">
<title>Sara</title>
<g id="a_node2"><a xlink:title="Lorem ipsum">
<ellipse fill="none" stroke="black" cx="269.11" cy="-162" rx="27.11" ry="18"/>
<text text-anchor="middle" x="269.11" y="-156.57" font-family="Times New Roman,serif" font-size="14.00">Sara</text>
</a>
</g>
</g>
<!-- Jonathan&#45;&gt;Sara -->
<g id="edge1" class="edge">
<title>Jonathan&#45;&gt;Sara</title>
<path fill="none" stroke="black" d="M224.76,-160C230.34,-160 236.08,-160 241.5,-160"/>
<path fill="none" stroke="none" d="M224.76,-162C230.34,-162 236.08,-162 241.5,-162"/>
<path fill="none" stroke="black" d="M224.76,-164C230.34,-164 236.08,-164 241.5,-164"/>
</g>
<!-- Henry -->
<g id="node3" class="node">
<title>Henry</title>
<g id="a_node3"><a xlink:title="Lorem ipsum">
<polygon fill="none" stroke="black" points="65.11,-108 11.11,-108 11.11,-72 65.11,-72 65.11,-108"/>
<text text-anchor="middle" x="38.11" y="-84.58" font-family="Times New Roman,serif" font-size="14.00">Henry</text>
</a>
</g>
</g>
<!-- Jonathan&#45;&gt;Henry -->
<g id="edge2" class="edge">
<title>Jonathan&#45;&gt;Henry</title>
<path fill="none" stroke="black" d="M159.45,-162C114.24,-162 38.11,-162 38.11,-162 38.11,-162 38.11,-119.68 38.11,-119.68"/>
<polygon fill="black" stroke="black" points="41.61,-119.68 38.11,-109.68 34.61,-119.68 41.61,-119.68"/>
</g>
<!-- Julie -->
<g id="node4" class="node">
<title>Julie</title>
<g id="a_node4"><a xlink:title="Lorem ipsum">
<ellipse fill="none" stroke="black" cx="192.11" cy="-90" rx="27" ry="18"/>
<text text-anchor="middle" x="192.11" y="-84.58" font-family="Times New Roman,serif" font-size="14.00">Julie</text>
</a>
</g>
</g>
<!-- Jonathan&#45;&gt;Julie -->
<g id="edge3" class="edge">
<title>Jonathan&#45;&gt;Julie</title>
<path fill="none" stroke="black" d="M183.11,-143.83C183.11,-143.83 183.11,-118.93 183.11,-118.93"/>
<polygon fill="black" stroke="black" points="186.61,-118.93 183.11,-108.93 179.61,-118.93 186.61,-118.93"/>
</g>
<!-- William -->
<g id="node5" class="node">
<title>William</title>
<g id="a_node5"><a xlink:title="Lorem ipsum">
<polygon fill="none" stroke="black" points="367.11,-108 309.11,-108 309.11,-72 367.11,-72 367.11,-108"/>
<text text-anchor="middle" x="338.11" y="-84.58" font-family="Times New Roman,serif" font-size="14.00">William</text>
</a>
</g>
</g>
<!-- Jonathan&#45;&gt;William -->
<g id="edge4" class="edge">
<title>Jonathan&#45;&gt;William</title>
<path fill="none" stroke="black" d="M201.11,-143.58C201.11,-134.72 201.11,-126 201.11,-126 201.11,-126 338.11,-126 338.11,-126 338.11,-126 338.11,-119.94 338.11,-119.94"/>
<polygon fill="black" stroke="black" points="341.61,-119.94 338.11,-109.94 334.61,-119.94 341.61,-119.94"/>
</g>
<!-- Katie -->
<g id="node6" class="node">
<title>Katie</title>
<g id="a_node6"><a xlink:title="Lorem ipsum">
<ellipse fill="none" stroke="black" cx="113.11" cy="-90" rx="29.61" ry="18"/>
<text text-anchor="middle" x="113.11" y="-84.58" font-family="Times New Roman,serif" font-size="14.00">Katie</text>
</a>
</g>
</g>
<!-- Henry&#45;&gt;Katie -->
<g id="edge5" class="edge">
<title>Henry&#45;&gt;Katie</title>
<path fill="none" stroke="black" d="M65.18,-88C70.97,-88 77.12,-88 83.02,-88"/>
<path fill="none" stroke="none" d="M65.18,-90C70.97,-90 77.12,-90 83.02,-90"/>
<path fill="none" stroke="black" d="M65.18,-92C70.97,-92 77.12,-92 83.02,-92"/>
</g>
<!-- Betty -->
<g id="node9" class="node">
<title>Betty</title>
<g id="a_node9"><a xlink:title="Lorem ipsum">
<ellipse fill="none" stroke="black" cx="30.11" cy="-18" rx="30.11" ry="18"/>
<text text-anchor="middle" x="30.11" y="-12.57" font-family="Times New Roman,serif" font-size="14.00">Betty</text>
</a>
</g>
</g>
<!-- Henry&#45;&gt;Betty -->
<g id="edge8" class="edge">
<title>Henry&#45;&gt;Betty</title>
<path fill="none" stroke="black" d="M35.66,-71.83C35.66,-71.83 35.66,-47.43 35.66,-47.43"/>
<polygon fill="black" stroke="black" points="39.16,-47.43 35.66,-37.43 32.16,-47.43 39.16,-47.43"/>
</g>
<!-- Kevin -->
<g id="node7" class="node">
<title>Kevin</title>
<g id="a_node7"><a xlink:title="Lorem ipsum">
<polygon fill="none" stroke="black" points="291.11,-108 237.11,-108 237.11,-72 291.11,-72 291.11,-108"/>
<text text-anchor="middle" x="264.11" y="-84.58" font-family="Times New Roman,serif" font-size="14.00">Kevin</text>
</a>
</g>
</g>
<!-- Julie&#45;&gt;Kevin -->
<g id="edge6" class="edge">
<title>Julie&#45;&gt;Kevin</title>
<path fill="none" stroke="black" d="M219.33,-88C225.06,-88 231.11,-88 236.85,-88"/>
<path fill="none" stroke="none" d="M219.33,-90C225.06,-90 231.11,-90 236.85,-90"/>
<path fill="none" stroke="black" d="M219.33,-92C225.06,-92 231.11,-92 236.85,-92"/>
</g>
<!-- Katherine -->
<g id="node10" class="node">
<title>Katherine</title>
<g id="a_node10"><a xlink:title="Lorem ipsum">
<ellipse fill="none" stroke="black" cx="196.11" cy="-18" rx="45.57" ry="18"/>
<text text-anchor="middle" x="196.11" y="-12.57" font-family="Times New Roman,serif" font-size="14.00">Katherine</text>
</a>
</g>
</g>
<!-- Julie&#45;&gt;Katherine -->
<g id="edge9" class="edge">
<title>Julie&#45;&gt;Katherine</title>
<path fill="none" stroke="black" d="M192.11,-71.83C192.11,-71.83 192.11,-47.93 192.11,-47.93"/>
<polygon fill="black" stroke="black" points="195.61,-47.93 192.11,-37.93 188.61,-47.93 195.61,-47.93"/>
</g>
<!-- Laura -->
<g id="node8" class="node">
<title>Laura</title>
<g id="a_node8"><a xlink:title="Lorem ipsum">
<ellipse fill="none" stroke="black" cx="417.11" cy="-90" rx="31.6" ry="18"/>
<text text-anchor="middle" x="417.11" y="-84.58" font-family="Times New Roman,serif" font-size="14.00">Laura</text>
</a>
</g>
</g>
<!-- William&#45;&gt;Laura -->
<g id="edge7" class="edge">
<title>William&#45;&gt;Laura</title>
<path fill="none" stroke="black" d="M367.52,-88C373.23,-88 379.23,-88 385.01,-88"/>
<path fill="none" stroke="none" d="M367.52,-90C373.23,-90 379.23,-90 385.01,-90"/>
<path fill="none" stroke="black" d="M367.52,-92C373.23,-92 379.23,-92 385.01,-92"/>
</g>
<!-- David -->
<g id="node11" class="node">
<title>David</title>
<g id="a_node11"><a xlink:title="Lorem ipsum">
<polygon fill="none" stroke="black" points="339.11,-36 285.11,-36 285.11,0 339.11,0 339.11,-36"/>
<text text-anchor="middle" x="312.11" y="-12.57" font-family="Times New Roman,serif" font-size="14.00">David</text>
</a>
</g>
</g>
<!-- William&#45;&gt;David -->
<g id="edge10" class="edge">
<title>William&#45;&gt;David</title>
<path fill="none" stroke="black" d="M324.11,-71.83C324.11,-71.83 324.11,-47.93 324.11,-47.93"/>
<polygon fill="black" stroke="black" points="327.61,-47.93 324.11,-37.93 320.61,-47.93 327.61,-47.93"/>
</g>
<!-- Richard -->
<g id="node12" class="node">
<title>Richard</title>
<g id="a_node12"><a xlink:title="Lorem ipsum">
<polygon fill="none" stroke="black" points="417.23,-36 356.98,-36 356.98,0 417.23,0 417.23,-36"/>
<text text-anchor="middle" x="387.11" y="-12.57" font-family="Times New Roman,serif" font-size="14.00">Richard</text>
</a>
</g>
</g>
<!-- William&#45;&gt;Richard -->
<g id="edge11" class="edge">
<title>William&#45;&gt;Richard</title>
<path fill="none" stroke="black" d="M362.04,-71.83C362.04,-71.83 362.04,-47.93 362.04,-47.93"/>
<polygon fill="black" stroke="black" points="365.54,-47.93 362.04,-37.93 358.54,-47.93 365.54,-47.93"/>
</g>
<!-- Daniel -->
<g id="node13" class="node">
<title>Daniel</title>
<g id="a_node13"><a xlink:title="Lorem ipsum">
<polygon fill="none" stroke="black" points="132.11,-36 78.11,-36 78.11,0 132.11,0 132.11,-36"/>
<text text-anchor="middle" x="105.11" y="-12.57" font-family="Times New Roman,serif" font-size="14.00">Daniel</text>
</a>
</g>
</g>
<!-- Betty&#45;&gt;Daniel -->
<g id="edge12" class="edge">
<title>Betty&#45;&gt;Daniel</title>
<path fill="none" stroke="black" d="M60.61,-16C66.29,-16 72.19,-16 77.76,-16"/>
<path fill="none" stroke="none" d="M60.61,-18C66.29,-18 72.19,-18 77.76,-18"/>
<path fill="none" stroke="black" d="M60.61,-20C66.29,-20 72.19,-20 77.76,-20"/>
</g>
</g>
</svg>
